<svg id="Layer_1" data-name="Layer 1" xmlns="http://www.w3.org/2000/svg" viewBox="0 0 300 300"><defs><style>.cls-1{fill:#231f20;}</style></defs><title>Artboard 2</title><rect class="cls-1" x="32.21" y="32.65" width="28.67" height="28.67"/><rect class="cls-1" x="32.21" y="73.86" width="28.67" height="28.67"/><rect class="cls-1" x="32.21" y="115.06" width="28.67" height="28.67"/><rect class="cls-1" x="32.21" y="156.27" width="28.67" height="28.67"/><rect class="cls-1" x="32.21" y="197.48" width="28.67" height="28.67"/><rect class="cls-1" x="32.21" y="238.68" width="28.67" height="28.67"/><circle class="cls-1" cx="87.59" cy="46.65" r="14"/><circle class="cls-1" cx="87.59" cy="87.99" r="14"/><circle class="cls-1" cx="87.59" cy="129.33" r="14"/><circle class="cls-1" cx="87.59" cy="170.67" r="14"/><circle class="cls-1" cx="87.59" cy="212.01" r="14"/><circle class="cls-1" cx="87.59" cy="253.35" r="14"/><rect class="cls-1" x="114.31" y="32.65" width="28.67" height="28.67"/><rect class="cls-1" x="114.31" y="73.86" width="28.67" height="28.67"/><rect class="cls-1" x="114.31" y="115.06" width="28.67" height="28.67"/><rect class="cls-1" x="114.31" y="156.27" width="28.67" height="28.67"/><rect class="cls-1" x="114.31" y="197.48" width="28.67" height="28.67"/><rect class="cls-1" x="114.31" y="238.68" width="28.67" height="28.67"/><circle class="cls-1" cx="169.69" cy="46.65" r="14"/><circle class="cls-1" cx="169.69" cy="87.99" r="14"/><circle class="cls-1" cx="169.69" cy="129.33" r="14"/><circle class="cls-1" cx="169.69" cy="170.67" r="14"/><circle class="cls-1" cx="169.69" cy="212.01" r="14"/><circle class="cls-1" cx="169.69" cy="253.35" r="14"/><rect class="cls-1" x="196.41" y="32.65" width="28.67" height="28.67"/><rect class="cls-1" x="196.41" y="73.86" width="28.67" height="28.67"/><rect class="cls-1" x="196.41" y="115.06" width="28.67" height="28.67"/><rect class="cls-1" x="196.41" y="156.27" width="28.67" height="28.67"/><rect class="cls-1" x="196.41" y="197.48" width="28.67" height="28.67"/><rect class="cls-1" x="196.41" y="238.68" width="28.67" height="28.67"/><circle class="cls-1" cx="251.79" cy="46.65" r="14"/><circle class="cls-1" cx="251.79" cy="87.99" r="14"/><circle class="cls-1" cx="251.79" cy="129.33" r="14"/><circle class="cls-1" cx="251.79" cy="170.67" r="14"/><circle class="cls-1" cx="251.79" cy="212.01" r="14"/><circle class="cls-1" cx="251.79" cy="253.35" r="14"/></svg>