<svg id="Layer_1" data-name="Layer 1" xmlns="http://www.w3.org/2000/svg" viewBox="0 0 300 300"><defs><style>.cls-1{fill:#231f20;}</style></defs><title>Artboard 3</title><rect class="cls-1" x="35.5" y="32.25" width="28.67" height="28.67"/><rect class="cls-1" x="35.5" y="73.45" width="28.67" height="28.67"/><rect class="cls-1" x="35.5" y="114.66" width="28.67" height="28.67"/><rect class="cls-1" x="35.5" y="155.87" width="28.67" height="28.67"/><rect class="cls-1" x="35.5" y="197.08" width="28.67" height="28.67"/><rect class="cls-1" x="35.5" y="238.28" width="28.67" height="28.67"/><rect class="cls-1" x="76.49" y="32.25" width="28.67" height="28.67"/><rect class="cls-1" x="76.49" y="73.45" width="28.67" height="28.67"/><rect class="cls-1" x="76.49" y="114.66" width="28.67" height="28.67"/><rect class="cls-1" x="76.49" y="155.87" width="28.67" height="28.67"/><rect class="cls-1" x="76.49" y="197.08" width="28.67" height="28.67"/><rect class="cls-1" x="76.49" y="238.28" width="28.67" height="28.67"/><rect class="cls-1" x="153.99" y="32.25" width="28.67" height="28.67"/><rect class="cls-1" x="153.99" y="73.45" width="28.67" height="28.67"/><rect class="cls-1" x="153.99" y="114.66" width="28.67" height="28.67"/><rect class="cls-1" x="153.99" y="238.28" width="28.67" height="28.67"/><rect class="cls-1" x="195.24" y="32.25" width="28.67" height="28.67"/><rect class="cls-1" x="195.24" y="73.45" width="28.67" height="28.67"/><rect class="cls-1" x="195.24" y="114.66" width="28.67" height="28.67"/><rect class="cls-1" x="195.24" y="238.28" width="28.67" height="28.67"/><rect class="cls-1" x="236.49" y="32.25" width="28.67" height="28.67"/><rect class="cls-1" x="236.49" y="73.45" width="28.67" height="28.67"/><rect class="cls-1" x="236.49" y="114.66" width="28.67" height="28.67"/><rect class="cls-1" x="236.49" y="238.28" width="28.67" height="28.67"/></svg>