<svg id="Layer_1" data-name="Layer 1" xmlns="http://www.w3.org/2000/svg" viewBox="0 0 328.45 369.41">
  <title>logo_panda</title>
  <path d="M228.43,157.88c10.52,11.8,11.62,46.83,38.08,32.91C282.4,182.4,282.18,147,261,134.26c-17.14-10.16-26.58,3.54-32.77,20.32-0.47,1.31-.53,2.62.21,3.31" transform="translate(0 0)"/>
  <path d="M187.35,152.29c-11.06,9.16-18.63,34.26-39,25.74-16.4-8.35-18-40.91,10.29-56,19.74-9.07,29.76,8.9,29.89,28a3.93,3.93,0,0,1-1.21,2.25" transform="translate(0 0)"/>
  <path d="M214.63,216.37c10.92-1.13,8.46-11.26.19-13.82a98.86,98.86,0,0,0-26.52-3.46c-14.07.32-13.71,11-6.41,12.86,5.5,1.86,9.09,2.57,13.86,8.7,4.37,8.46,2.42-2.52,18.87-4.27" transform="translate(0 0)"/>
  <path d="M266.14,35.16c13.73-22.85,37.57-18.42,49.56-7,13.15,12.35,15.3,26.62,10.2,36.67-6.89,13.46-24.4,29.83-35.83,14-5-7-15.78-15.36-21.61-17.77-9-3.77-10.69-11.91-2.32-25.89" transform="translate(0 0)"/>
  <path d="M215.56,240.14c-6,15.84-37,10.41-38-4.9,0-.59.81-0.47,1.18-0.42,13.85,3.28,26.92,4.79,35.87,4.76,0.32,0,1-.19.9,0.56M320.74,135.83c-1.24-4-3.24-3.83-3.17-.46,1.11,41.6-23.73,86.18-76.92,86.49-13.58,0-9.5,21.82-34.31,10.87-17.91-12.09-28.11,11.7-40.87-13.9-2.78-7.36-7-10.31-12.38-11.63-52.52-13-69.26-85.29-23-143.67,9.17,5.5,12.52,6.32,22.3-2.62C157.45,56.19,166,51,170.66,49.27c11.15-4.26,17.17-9,7.57-30.22C165.84-8.51,140.58-.73,129,8.81c-13,10.77-22.21,28.11-5.38,48.56-47.07,31.72-55.11,70.71-54,104.55,1.1,36.07-8.14,33,3.37,69.68,1,3.2-1.26,3.12-3,2.09-49-31.4-75.53-127.13.89-179.88,1.73-1.58,1-3.56-5.26.11C-0.53,88.88-6.6,156.66,4.35,202.28c5.38,22.12-2.78,26.2,5.79,55.22,19.69,60.5,36.48,65.32,60.18,67.1,43.15,0,13.89-23.82,15.47-53.71,0-1.75,2.14-2.59,3.35,1,23.74,53.26,40.53,101.77,103,97.23,36.13-4.73,16.09-22.67,13.9-32.84-26.6-88.21,37.9-109,19.65-23-12.06,49.26,26,44.32,52.86,26.66,27.67-18.17,62.28-138.1,42.24-204.09" transform="translate(0 0)"/>
</svg>
